<?xml version="1.0" encoding="utf-8"?>
<!-- Generator: Adobe Illustrator 26.1.0, SVG Export Plug-In . SVG Version: 6.00 Build 0)  -->
<svg version="1.1" id="Layer_1" xmlns="http://www.w3.org/2000/svg" xmlns:xlink="http://www.w3.org/1999/xlink" x="0px" y="0px"
	 viewBox="0 0 149.3 11.9" style="enable-background:new 0 0 149.3 11.9;" xml:space="preserve">
<style type="text/css">
	.st0{fill:#FFFFFF;}
</style>
<path class="st0" d="M10.2,11.9L9.3,9.6H3.8l-1,2.3H0L5.2,0H8l5.1,11.9H10.2z M4.6,7.4h3.8L6.5,2.8L4.6,7.4z M27.4,11.9h-3l-1.9-3.4
	h-2.7v3.4h-2.7V0h5.2c3.1,0,4.9,1.5,4.9,4.1c0,1.8-0.8,3.2-2.2,3.8L27.4,11.9z M19.7,2.2v4h2.5c1.5,0,2.3-0.7,2.3-2s-0.8-2-2.3-2
	C22.2,2.2,19.7,2.2,19.7,2.2z M43.1,11.9h-3.2l-3.4-4.8L34.8,9v2.9h-2.7V0h2.7v5.4L39.7,0h3.1l-4.5,5L43.1,11.9z M46.9,5.8h4.4v1.7
	h-4.4V5.8z M64.1,3.4c-1.3-0.7-2.8-1.2-3.7-1.2s-1.5,0.3-1.5,1c0,2.2,6.3,1,6.3,5.3c0,2.3-2,3.6-4.7,3.6c-2,0-3.9-0.7-5.3-1.9
	l1.2-2.3c1.2,1.1,3,1.8,4.2,1.8c1.1,0,1.8-0.4,1.8-1.1c0-2.2-6.3-0.9-6.3-5.2c0-2.2,1.9-3.5,4.6-3.5c1.7,0,3.3,0.5,4.5,1.3L64.1,3.4
	z M69.8,0h2.7v5h5.4V0h2.7v11.9h-2.7V7.2h-5.4v4.7h-2.7V0z M85.9,0H95v2.2h-6.4v2.6h5.7V7h-5.7v2.6h6.5v2.3h-9.2V0z M99.9,0h2.7v9.6
	h5.1v2.3h-7.8C99.9,11.9,99.9,0,99.9,0z M110.8,0h9.9v2.3h-3.6v9.6h-2.7V2.3h-3.6C110.8,2.3,110.8,0,110.8,0z M124.9,0h9.1v2.2h-6.4
	v2.6h5.7V7h-5.7v2.6h6.6v2.3H125V0H124.9z M149.3,11.9h-3l-1.9-3.4h-2.7v3.4H139V0h5.2c3.1,0,4.9,1.5,4.9,4.1c0,1.8-0.8,3.2-2.2,3.8
	L149.3,11.9z M141.7,2.2v4h2.5c1.5,0,2.3-0.7,2.3-2s-0.9-2-2.3-2C144.2,2.2,141.7,2.2,141.7,2.2z"/>
</svg>
